<svg xmlns="http://www.w3.org/2000/svg" width="23.165" height="15.443" viewBox="0 0 23.165 15.443">
  <path id="icon-awesome-eye" d="M23.025,11.634A12.9,12.9,0,0,0,11.583,4.5,12.9,12.9,0,0,0,.14,11.635a1.3,1.3,0,0,0,0,1.174,12.9,12.9,0,0,0,11.443,7.134,12.9,12.9,0,0,0,11.443-7.135A1.3,1.3,0,0,0,23.025,11.634ZM11.583,18.013a5.791,5.791,0,1,1,5.791-5.791A5.791,5.791,0,0,1,11.583,18.013Zm0-9.652a3.833,3.833,0,0,0-1.018.152A1.924,1.924,0,0,1,7.874,11.2a3.852,3.852,0,1,0,3.708-2.843Z" transform="translate(0 -4.5)" fill="#fff"/>
</svg>
