<svg xmlns="http://www.w3.org/2000/svg" width="26.695" height="30.508" viewBox="0 0 26.695 30.508">
  <path id="icon-shop" d="M20.974,9.534V7.627a7.627,7.627,0,0,0-15.254,0V9.534H0V25.741a4.767,4.767,0,0,0,4.767,4.767H21.928a4.767,4.767,0,0,0,4.767-4.767V9.534ZM9.534,7.627a3.814,3.814,0,0,1,7.627,0V9.534H9.534Zm9.534,7.15a1.43,1.43,0,1,1,1.43-1.43A1.43,1.43,0,0,1,19.068,14.777Zm-11.441,0a1.43,1.43,0,1,1,1.43-1.43A1.43,1.43,0,0,1,7.627,14.777Z" fill="#e7e7e7" style="mix-blend-mode: multiply;isolation: isolate"/>
</svg>
