<svg xmlns="http://www.w3.org/2000/svg" width="25.774" height="29.456" viewBox="0 0 25.774 29.456">
  <path id="icon-events" d="M0,26.695a2.762,2.762,0,0,0,2.762,2.762H23.013a2.762,2.762,0,0,0,2.762-2.762V11.046H0ZM18.41,15.419a.692.692,0,0,1,.69-.69h2.3a.692.692,0,0,1,.69.69v2.3a.692.692,0,0,1-.69.69H19.1a.692.692,0,0,1-.69-.69Zm0,7.364a.692.692,0,0,1,.69-.69h2.3a.692.692,0,0,1,.69.69v2.3a.692.692,0,0,1-.69.69H19.1a.692.692,0,0,1-.69-.69Zm-7.364-7.364a.692.692,0,0,1,.69-.69h2.3a.692.692,0,0,1,.69.69v2.3a.692.692,0,0,1-.69.69h-2.3a.692.692,0,0,1-.69-.69Zm0,7.364a.692.692,0,0,1,.69-.69h2.3a.692.692,0,0,1,.69.69v2.3a.692.692,0,0,1-.69.69h-2.3a.692.692,0,0,1-.69-.69ZM3.682,15.419a.692.692,0,0,1,.69-.69h2.3a.692.692,0,0,1,.69.69v2.3a.692.692,0,0,1-.69.69h-2.3a.692.692,0,0,1-.69-.69Zm0,7.364a.692.692,0,0,1,.69-.69h2.3a.692.692,0,0,1,.69.69v2.3a.692.692,0,0,1-.69.69h-2.3a.692.692,0,0,1-.69-.69Zm19.331-19.1H20.251V.921A.923.923,0,0,0,19.331,0H17.49a.923.923,0,0,0-.921.921V3.682H9.205V.921A.923.923,0,0,0,8.285,0H6.444a.923.923,0,0,0-.921.921V3.682H2.762A2.762,2.762,0,0,0,0,6.444V9.205H25.774V6.444A2.762,2.762,0,0,0,23.013,3.682Z" fill="#e7e7e7" style="mix-blend-mode: multiply;isolation: isolate"/>
</svg>
