<svg xmlns="http://www.w3.org/2000/svg" xmlns:xlink="http://www.w3.org/1999/xlink" width="39.565" height="31.208" viewBox="0 0 39.565 31.208">
  <path id="icon-text" d="M240.525,213.006h-.812v8.726q0,.388,0,.777t0,.777q0,.389,0,.777t-.005.777a4.511,4.511,0,0,1-.227,1.385,3.46,3.46,0,0,1-.629,1.135,2.956,2.956,0,0,1-1.012.775,3.393,3.393,0,0,1-1.375.3q-.7.014-1.391.016t-1.392,0l-1.392-.009q-.7,0-1.391-.005H215.277a4.69,4.69,0,0,0,.1.972,3.5,3.5,0,0,0,.3.861,3.257,3.257,0,0,0,.523.747,4,4,0,0,0,1.883,1.126,4.384,4.384,0,0,0,.593.115,5.2,5.2,0,0,0,.615.038q2,.009,3.993.011t3.993,0l3.993-.006q2,0,3.993,0l1.55.911,1.55.911,1.55.911,1.55.911-.225-.911-.225-.911-.225-.911-.225-.911a3.013,3.013,0,0,0,1.389-.289,2.5,2.5,0,0,0,.934-.8,3.531,3.531,0,0,0,.526-1.172,5.59,5.59,0,0,0,.165-1.392v-9.025q0-.443,0-.885t0-.885q0-.443,0-.885t0-.885a4.241,4.241,0,0,0-.17-1.221,2.759,2.759,0,0,0-.511-.973,2.3,2.3,0,0,0-.864-.643,3.083,3.083,0,0,0-1.231-.233Zm-28.937,4.147a2.278,2.278,0,0,1-1.188-1.188,2.168,2.168,0,0,1,0-1.717,2.278,2.278,0,0,1,1.188-1.188,2.168,2.168,0,0,1,1.717,0,2.28,2.28,0,0,1,1.188,1.188,2.167,2.167,0,0,1,0,1.716,2.279,2.279,0,0,1-1.188,1.188,2.168,2.168,0,0,1-1.717,0m8.306,0a2.278,2.278,0,0,1-1.188-1.188,2.168,2.168,0,0,1,0-1.717,2.278,2.278,0,0,1,1.188-1.188,2.168,2.168,0,0,1,1.717,0,2.278,2.278,0,0,1,1.188,1.188,2.169,2.169,0,0,1,0,1.717,2.277,2.277,0,0,1-1.188,1.188,2.169,2.169,0,0,1-1.717,0m8.307,0a2.28,2.28,0,0,1-1.189-1.188,2.167,2.167,0,0,1,0-1.717,2.28,2.28,0,0,1,1.189-1.188,2.167,2.167,0,0,1,1.717,0,2.281,2.281,0,0,1,1.188,1.188,2.165,2.165,0,0,1,0,1.716,2.28,2.28,0,0,1-1.188,1.188,2.172,2.172,0,0,1-.858.177h0a2.174,2.174,0,0,1-.859-.177m-18.509-12.418-.8,0A5.433,5.433,0,0,0,207.3,205a5.987,5.987,0,0,0-1.545.743,4.393,4.393,0,0,0-1.191,1.166,3.046,3.046,0,0,0-.53,1.534c-.015.263-.023.528-.026.793s0,.531,0,.8.009.532.013.8.008.53.008.794v11.308c0,.13,0,.258,0,.385s.011.251.027.374a2.4,2.4,0,0,0,.074.367,2,2,0,0,0,.145.364,3.08,3.08,0,0,0,.7.887,4.38,4.38,0,0,0,.969.641,6.025,6.025,0,0,0,1.106.412,6.736,6.736,0,0,0,1.112.2l-.33,1.251-.33,1.251-.33,1.251-.33,1.251,2.112-1.242,2.112-1.242,2.112-1.242L215.3,226.6H232.71a10.474,10.474,0,0,0,1.1-.052,6.312,6.312,0,0,0,1.071-.2,4.333,4.333,0,0,0,.992-.415,3.642,3.642,0,0,0,.864-.7,2.574,2.574,0,0,0,.464-.708,3.007,3.007,0,0,0,.213-.759,5.844,5.844,0,0,0,.058-.8c0-.272,0-.549,0-.829V211.988q0-.416,0-.832t0-.833q0-.416,0-.833t0-.832a3.526,3.526,0,0,0-.363-1.516,4.187,4.187,0,0,0-.939-1.248,4.514,4.514,0,0,0-1.329-.847,4.045,4.045,0,0,0-1.534-.312H209.691" transform="translate(-204.007 -204.734)" fill="#005ba8"/>
</svg>
