<svg xmlns="http://www.w3.org/2000/svg" width="39.395" height="26.592" viewBox="0 0 39.395 26.592">
  <path id="icon-zocial-email" d="M.072,28.305V6.423q0-.038.114-.722L13.064,16.718.224,29.065a3.22,3.22,0,0,1-.152-.76ZM1.782,4.182a1.637,1.637,0,0,1,.646-.114H37.111a2.151,2.151,0,0,1,.684.114L24.879,15.237,23.169,16.6l-3.381,2.773L16.407,16.6,14.7,15.237ZM1.82,30.546,14.774,18.124l5.015,4.065L24.8,18.124,37.757,30.546a1.824,1.824,0,0,1-.646.114H2.427a1.721,1.721,0,0,1-.608-.114ZM26.512,16.718,39.353,5.7a2.267,2.267,0,0,1,.114.722V28.305a2.912,2.912,0,0,1-.114.76Z" transform="translate(-0.072 -4.068)" fill="#005ba8"/>
</svg>
