<svg xmlns="http://www.w3.org/2000/svg" width="15.685" height="15.685" viewBox="0 0 15.685 15.685">
  <path id="icon-awesome-expand-arrows-alt" d="M15.685,13.173v3.921a.838.838,0,0,1-.84.84H10.923a.841.841,0,0,1-.6-1.435L11.6,15.232,7.842,11.479,4.088,15.236,5.357,16.5a.841.841,0,0,1-.6,1.435H.84a.838.838,0,0,1-.84-.84V13.173a.841.841,0,0,1,1.435-.6L2.7,13.846l3.756-3.753L2.7,6.336,1.435,7.607A.841.841,0,0,1,0,7.011V3.09a.838.838,0,0,1,.84-.84H4.761a.841.841,0,0,1,.6,1.435L4.089,4.953,7.842,8.706,11.6,4.949,10.328,3.685a.841.841,0,0,1,.6-1.435h3.921a.838.838,0,0,1,.84.84V7.011a.841.841,0,0,1-1.435.6L12.982,6.339,9.227,10.092l3.756,3.757,1.267-1.267A.84.84,0,0,1,15.685,13.173Z" transform="translate(0 -2.25)" fill="#fff"/>
</svg>
