<svg xmlns="http://www.w3.org/2000/svg" width="26.843" height="31.814" viewBox="0 0 26.843 31.814">
  <path id="icon-dine" d="M9.5,1.928c-3.294,0-5.965,3.116-5.965,6.959,0,3.291,1.958,6.048,4.589,6.773l-.988,16.1A1.852,1.852,0,0,0,9,33.742H10a1.852,1.852,0,0,0,1.867-1.985l-.988-16.1c2.631-.725,4.589-3.482,4.589-6.773C15.465,5.044,12.794,1.928,9.5,1.928Zm20.049,0L27.892,11.87H26.649l-.828-9.942h-.828l-.828,9.942H22.921L21.264,1.928h-.828V14.852a.994.994,0,0,0,.994.994h2.589l-.976,15.911a1.852,1.852,0,0,0,1.867,1.985H25.9a1.852,1.852,0,0,0,1.867-1.985l-.976-15.911h2.589a.994.994,0,0,0,.994-.994V1.928Z" transform="translate(-3.535 -1.928)" fill="#e7e7e7" style="mix-blend-mode: multiply;isolation: isolate"/>
</svg>
