<svg xmlns="http://www.w3.org/2000/svg" xmlns:xlink="http://www.w3.org/1999/xlink" width="29.346" height="33.217" viewBox="0 0 29.346 33.217">
  <path id="icon-play" d="M4.4,8.684a1.75,1.75,0,1,1,2.326.842A1.749,1.749,0,0,1,4.4,8.684M14.1,25.642a16.847,16.847,0,0,1,6.749-2c1.444-1.107,2.544-2.266,2.735-3.316C24.96,12.759,12.285,0,12.285,0V26.743c.614-.388,1.218-.767,1.819-1.1M3.231,19.414l4.72,3.295L8.438,27.9a.928.928,0,0,0,.554.74c.573-.267,1.132-.575,1.682-.9,0-.016,0-.032,0-.048l-.584-6.221a.852.852,0,0,0-.336-.706l-3.732-2.6c.007-.031.015-.061.021-.092L6.83,13.43l.9,1.076a.793.793,0,0,0,.671.283.787.787,0,0,0,.5-.16L11.428,12.7a.8.8,0,0,0-.966-1.263L8.492,12.94l-1.579-1.9a.754.754,0,0,0-.067-.065,1.907,1.907,0,0,0-3.568.57l-1,5.879a1.907,1.907,0,0,0,.952,1.985M0,27.649s4.175,7.561,11.448,5.063c4.479-1.538,11.9-8.583,17.9-4.328-3.982-5.337-11.282-3.953-15.213-1.769C10.141,28.834,5.963,33.156,0,27.649" fill="#e7e7e7"/>
</svg>
