<svg xmlns="http://www.w3.org/2000/svg" width="14.229" height="22.749" viewBox="0 0 14.229 22.749">
  <path id="icon-open-dollar" d="M5.664,0V2.84H3.533A3.588,3.588,0,0,0-.017,6.39V7.81a4.079,4.079,0,0,0,3.1,4l7.271,1.874a1.739,1.739,0,0,1,.966,1.25v1.42a.7.7,0,0,1-.71.71h-7.1a1.589,1.589,0,0,1-.71-.17v-2.67H-.045v2.84A2.668,2.668,0,0,0,1.2,19.284a4.01,4.01,0,0,0,2.3.625h2.13v2.84h2.84v-2.84h2.13a3.551,3.551,0,0,0,3.55-3.55v-1.42a4.079,4.079,0,0,0-3.1-4L3.789,9.06a1.739,1.739,0,0,1-.966-1.25V6.39a.7.7,0,0,1,.71-.71h7.1a1.709,1.709,0,0,1,.71.17V8.52h2.84V5.68a2.668,2.668,0,0,0-1.25-2.215,4.01,4.01,0,0,0-2.3-.625H8.5V0H5.664Z" transform="translate(0.045)" fill="#0059a5"/>
</svg>
