<svg xmlns="http://www.w3.org/2000/svg" width="22.622" height="22.622" viewBox="0 0 22.622 22.622">
  <path id="icon-awesome-compass" d="M10.279,10.841a1.459,1.459,0,1,0,2.064,0,1.459,1.459,0,0,0-2.064,0ZM11.311.563A11.311,11.311,0,1,0,22.622,11.873,11.311,11.311,0,0,0,11.311.563Zm5.753,6.752L14.055,13.9a1.457,1.457,0,0,1-.719.719L6.753,17.626a.9.9,0,0,1-1.195-1.195L8.567,9.848a1.457,1.457,0,0,1,.719-.719L15.869,6.12A.9.9,0,0,1,17.064,7.315Z" transform="translate(0 -0.563)" fill="#0059a5"/>
</svg>
